<svg width="26" height="25" viewBox="0 0 26 25" fill="none" xmlns="http://www.w3.org/2000/svg">
<g id="mdi:user-badge">
<path id="Vector" d="M18.3184 3.12484H15.1934V6.24984H11.0267V3.12484H7.90169C7.34916 3.12484 6.81925 3.34433 6.42855 3.73503C6.03785 4.12573 5.81836 4.65564 5.81836 5.20817V21.8748C5.81836 22.4274 6.03785 22.9573 6.42855 23.348C6.81925 23.7387 7.34916 23.9582 7.90169 23.9582H18.3184C18.8709 23.9582 19.4008 23.7387 19.7915 23.348C20.1822 22.9573 20.4017 22.4274 20.4017 21.8748V5.20817C20.4017 4.65564 20.1822 4.12573 19.7915 3.73503C19.4008 3.34433 18.8709 3.12484 18.3184 3.12484ZM13.11 8.33317C13.6626 8.33317 14.1925 8.55266 14.5832 8.94336C14.9739 9.33406 15.1934 9.86397 15.1934 10.4165C15.1934 10.969 14.9739 11.4989 14.5832 11.8896C14.1925 12.2803 13.6626 12.4998 13.11 12.4998C12.5575 12.4998 12.0276 12.2803 11.6369 11.8896C11.2462 11.4989 11.0267 10.969 11.0267 10.4165C11.0267 9.86397 11.2462 9.33406 11.6369 8.94336C12.0276 8.55266 12.5575 8.33317 13.11 8.33317ZM17.2767 16.6665H8.94336V15.6248C8.94336 14.2394 11.7246 13.5415 13.11 13.5415C14.4954 13.5415 17.2767 14.2394 17.2767 15.6248V16.6665ZM14.1517 5.20817H12.0684V1.0415H14.1517V5.20817ZM17.2767 19.7915H8.94336V18.7498H17.2767V19.7915ZM13.11 21.8748H8.94336V20.8332H13.11V21.8748Z" fill="black"/>
</g>
</svg>
